HIERARCHY
ROOT mixamorig:Hips
{
	OFFSET -0.000008 104.274872 1.554316
	CHANNELS 6 Xposition Yposition Zposition Xrotation Yrotation Zrotation
	JOINT mixamorig:Spine
	{
		OFFSET -0.000005 10.181595 0.131519
		CHANNELS 6 Xposition Yposition Zposition Xrotation Yrotation Zrotation
		JOINT mixamorig:Spine1
		{
			OFFSET -0.000000 9.893959 -1.470707
			CHANNELS 6 Xposition Yposition Zposition Xrotation Yrotation Zrotation
			JOINT mixamorig:Spine2
			{
				OFFSET -0.000000 9.220757 -1.370641
				CHANNELS 6 Xposition Yposition Zposition Xrotation Yrotation Zrotation
				JOINT mixamorig:Neck
				{
					OFFSET 0.000001 16.740417 -2.049036
					CHANNELS 6 Xposition Yposition Zposition Xrotation Yrotation Zrotation
					JOINT mixamorig:Head
					{
						OFFSET 0.000000 9.617874 1.685006
						CHANNELS 6 Xposition Yposition Zposition Xrotation Yrotation Zrotation
						JOINT mixamorig:HeadTop_End
						{
							OFFSET 0.000002 22.037354 7.501101
							CHANNELS 6 Xposition Yposition Zposition Xrotation Yrotation Zrotation
							End Site
							{
								OFFSET 0.000168 2310.654297 -282.823242
							}
						}
					}
				}
				JOINT mixamorig:RightShoulder
				{
					OFFSET -4.569970 11.014908 -2.160885
					CHANNELS 6 Xposition Yposition Zposition Xrotation Yrotation Zrotation
					JOINT mixamorig:RightArm
					{
						OFFSET -10.592851 -0.524811 -2.232101
						CHANNELS 6 Xposition Yposition Zposition Xrotation Yrotation Zrotation
						JOINT mixamorig:RightForeArm
						{
							OFFSET -27.841511 0.000031 -0.000004
							CHANNELS 6 Xposition Yposition Zposition Xrotation Yrotation Zrotation
							JOINT mixamorig:RightHand
							{
								OFFSET -28.328831 -0.000015 0.000015
								CHANNELS 6 Xposition Yposition Zposition Xrotation Yrotation Zrotation
								JOINT mixamorig:RightHandThumb1
								{
									OFFSET -2.464806 -1.573990 2.681852
									CHANNELS 6 Xposition Yposition Zposition Xrotation Yrotation Zrotation
									JOINT mixamorig:RightHandThumb2
									{
										OFFSET -3.215179 -1.872803 1.924282
										CHANNELS 6 Xposition Yposition Zposition Xrotation Yrotation Zrotation
										JOINT mixamorig:RightHandThumb3
										{
											OFFSET -2.654831 -1.527969 1.512609
											CHANNELS 6 Xposition Yposition Zposition Xrotation Yrotation Zrotation
											JOINT mixamorig:RightHandThumb4
											{
												OFFSET -2.018814 -1.152008 1.108052
												CHANNELS 6 Xposition Yposition Zposition Xrotation Yrotation Zrotation
												End Site
												{
													OFFSET -188.809540 -114.533607 132.431396
												}
											}
										}
									}
								}
								JOINT mixamorig:RightHandIndex1
								{
									OFFSET -9.108284 -0.517868 2.259835
									CHANNELS 6 Xposition Yposition Zposition Xrotation Yrotation Zrotation
									JOINT mixamorig:RightHandIndex2
									{
										OFFSET -3.699989 0.000000 0.001215
										CHANNELS 6 Xposition Yposition Zposition Xrotation Yrotation Zrotation
										JOINT mixamorig:RightHandIndex3
										{
											OFFSET -2.850006 0.000031 -0.000522
											CHANNELS 6 Xposition Yposition Zposition Xrotation Yrotation Zrotation
											JOINT mixamorig:RightHandIndex4
											{
												OFFSET -2.772186 -0.000015 -0.000020
												CHANNELS 6 Xposition Yposition Zposition Xrotation Yrotation Zrotation
												End Site
												{
													OFFSET -277.218445 0.000000 -0.050231
												}
											}
										}
									}
								}
								JOINT mixamorig:RightHandMiddle1
								{
									OFFSET -9.532516 -0.000031 -0.000023
									CHANNELS 6 Xposition Yposition Zposition Xrotation Yrotation Zrotation
									JOINT mixamorig:RightHandMiddle2
									{
										OFFSET -3.700005 -0.000015 0.003713
										CHANNELS 6 Xposition Yposition Zposition Xrotation Yrotation Zrotation
										JOINT mixamorig:RightHandMiddle3
										{
											OFFSET -2.949974 0.000015 -0.002054
											CHANNELS 6 Xposition Yposition Zposition Xrotation Yrotation Zrotation
											JOINT mixamorig:RightHandMiddle4
											{
												OFFSET -2.946640 0.000000 -0.000156
												CHANNELS 6 Xposition Yposition Zposition Xrotation Yrotation Zrotation
												End Site
												{
													OFFSET -294.664337 0.000000 -0.113670
												}
											}
										}
									}
								}
								JOINT mixamorig:RightHandRing1
								{
									OFFSET -9.103600 -0.043076 -1.865134
									CHANNELS 6 Xposition Yposition Zposition Xrotation Yrotation Zrotation
									JOINT mixamorig:RightHandRing2
									{
										OFFSET -3.379288 0.000000 -0.001055
										CHANNELS 6 Xposition Yposition Zposition Xrotation Yrotation Zrotation
										JOINT mixamorig:RightHandRing3
										{
											OFFSET -2.889687 -0.000015 0.000379
											CHANNELS 6 Xposition Yposition Zposition Xrotation Yrotation Zrotation
											JOINT mixamorig:RightHandRing4
											{
												OFFSET -2.638809 -0.000015 0.000941
												CHANNELS 6 Xposition Yposition Zposition Xrotation Yrotation Zrotation
												End Site
												{
													OFFSET -263.880371 0.000000 0.516020
												}
											}
										}
									}
								}
								JOINT mixamorig:RightHandPinky1
								{
									OFFSET -8.076683 -0.486710 -3.806280
									CHANNELS 6 Xposition Yposition Zposition Xrotation Yrotation Zrotation
									JOINT mixamorig:RightHandPinky2
									{
										OFFSET -3.600014 -0.000015 -0.003747
										CHANNELS 6 Xposition Yposition Zposition Xrotation Yrotation Zrotation
										JOINT mixamorig:RightHandPinky3
										{
											OFFSET -2.099983 0.000000 -0.005739
											CHANNELS 6 Xposition Yposition Zposition Xrotation Yrotation Zrotation
											JOINT mixamorig:RightHandPinky4
											{
												OFFSET -2.115768 -0.000031 -0.003680
												CHANNELS 6 Xposition Yposition Zposition Xrotation Yrotation Zrotation
												End Site
												{
													OFFSET -211.577087 0.000000 -0.350686
												}
											}
										}
									}
								}
							}
						}
					}
				}
				JOINT mixamorig:LeftShoulder
				{
					OFFSET 4.570447 11.014725 -2.160855
					CHANNELS 6 Xposition Yposition Zposition Xrotation Yrotation Zrotation
					JOINT mixamorig:LeftArm
					{
						OFFSET 10.592371 -0.524597 -2.232119
						CHANNELS 6 Xposition Yposition Zposition Xrotation Yrotation Zrotation
						JOINT mixamorig:LeftForeArm
						{
							OFFSET 27.841532 -0.000031 0.000026
							CHANNELS 6 Xposition Yposition Zposition Xrotation Yrotation Zrotation
							JOINT mixamorig:LeftHand
							{
								OFFSET 28.328846 -0.000061 0.000022
								CHANNELS 6 Xposition Yposition Zposition Xrotation Yrotation Zrotation
								JOINT mixamorig:LeftHandThumb1
								{
									OFFSET 2.466141 -1.576172 2.681732
									CHANNELS 6 Xposition Yposition Zposition Xrotation Yrotation Zrotation
									JOINT mixamorig:LeftHandThumb2
									{
										OFFSET 3.217812 -1.872070 1.916482
										CHANNELS 6 Xposition Yposition Zposition Xrotation Yrotation Zrotation
										JOINT mixamorig:LeftHandThumb3
										{
											OFFSET 2.656029 -1.528778 1.514513
											CHANNELS 6 Xposition Yposition Zposition Xrotation Yrotation Zrotation
											JOINT mixamorig:LeftHandThumb4
											{
												OFFSET 2.020889 -1.154053 1.115139
												CHANNELS 6 Xposition Yposition Zposition Xrotation Yrotation Zrotation
												End Site
												{
													OFFSET 190.885437 -115.081749 130.048782
												}
											}
										}
									}
								}
								JOINT mixamorig:LeftHandIndex1
								{
									OFFSET 9.109314 -0.518021 2.259871
									CHANNELS 6 Xposition Yposition Zposition Xrotation Yrotation Zrotation
									JOINT mixamorig:LeftHandIndex2
									{
										OFFSET 3.699989 0.000000 -0.000322
										CHANNELS 6 Xposition Yposition Zposition Xrotation Yrotation Zrotation
										JOINT mixamorig:LeftHandIndex3
										{
											OFFSET 2.850006 0.000000 0.000352
											CHANNELS 6 Xposition Yposition Zposition Xrotation Yrotation Zrotation
											JOINT mixamorig:LeftHandIndex4
											{
												OFFSET 2.774864 -0.000031 -0.000027
												CHANNELS 6 Xposition Yposition Zposition Xrotation Yrotation Zrotation
												End Site
												{
													OFFSET 277.486267 0.000000 -0.009857
												}
											}
										}
									}
								}
								JOINT mixamorig:LeftHandMiddle1
								{
									OFFSET 9.533394 0.000061 0.000044
									CHANNELS 6 Xposition Yposition Zposition Xrotation Yrotation Zrotation
									JOINT mixamorig:LeftHandMiddle2
									{
										OFFSET 3.699989 -0.000015 -0.000231
										CHANNELS 6 Xposition Yposition Zposition Xrotation Yrotation Zrotation
										JOINT mixamorig:LeftHandMiddle3
										{
											OFFSET 2.949997 -0.000015 -0.000059
											CHANNELS 6 Xposition Yposition Zposition Xrotation Yrotation Zrotation
											JOINT mixamorig:LeftHandMiddle4
											{
												OFFSET 2.952896 0.000031 0.000063
												CHANNELS 6 Xposition Yposition Zposition Xrotation Yrotation Zrotation
												End Site
												{
													OFFSET 295.289337 0.000000 0.022810
												}
											}
										}
									}
								}
								JOINT mixamorig:LeftHandRing1
								{
									OFFSET 9.104523 -0.042999 -1.865074
									CHANNELS 6 Xposition Yposition Zposition Xrotation Yrotation Zrotation
									JOINT mixamorig:LeftHandRing2
									{
										OFFSET 3.150009 -0.000031 0.000043
										CHANNELS 6 Xposition Yposition Zposition Xrotation Yrotation Zrotation
										JOINT mixamorig:LeftHandRing3
										{
											OFFSET 2.949982 -0.000015 0.000040
											CHANNELS 6 Xposition Yposition Zposition Xrotation Yrotation Zrotation
											JOINT mixamorig:LeftHandRing4
											{
												OFFSET 2.644348 0.000000 0.000057
												CHANNELS 6 Xposition Yposition Zposition Xrotation Yrotation Zrotation
												End Site
												{
													OFFSET 264.434631 0.000000 0.012105
												}
											}
										}
									}
								}
								JOINT mixamorig:LeftHandPinky1
								{
									OFFSET 8.077789 -0.486847 -3.806259
									CHANNELS 6 Xposition Yposition Zposition Xrotation Yrotation Zrotation
									JOINT mixamorig:LeftHandPinky2
									{
										OFFSET 3.599953 0.000031 0.014727
										CHANNELS 6 Xposition Yposition Zposition Xrotation Yrotation Zrotation
										JOINT mixamorig:LeftHandPinky3
										{
											OFFSET 2.100021 0.000015 0.007705
											CHANNELS 6 Xposition Yposition Zposition Xrotation Yrotation Zrotation
											JOINT mixamorig:LeftHandPinky4
											{
												OFFSET 2.125504 0.000031 0.007517
												CHANNELS 6 Xposition Yposition Zposition Xrotation Yrotation Zrotation
												End Site
												{
													OFFSET 212.550781 0.000000 0.625752
												}
											}
										}
									}
								}
							}
						}
					}
				}
			}
		}
	}
	JOINT mixamorig:RightUpLeg
	{
		OFFSET -8.207787 -6.751648 -1.599560
		CHANNELS 6 Xposition Yposition Zposition Xrotation Yrotation Zrotation
		JOINT mixamorig:RightLeg
		{
			OFFSET -0.000002 -44.370117 0.345942
			CHANNELS 6 Xposition Yposition Zposition Xrotation Yrotation Zrotation
			JOINT mixamorig:RightFoot
			{
				OFFSET 0.000003 -44.423679 -3.043532
				CHANNELS 6 Xposition Yposition Zposition Xrotation Yrotation Zrotation
				JOINT mixamorig:RightToeBase
				{
					OFFSET -0.000002 -8.728671 10.710558
					CHANNELS 6 Xposition Yposition Zposition Xrotation Yrotation Zrotation
					JOINT mixamorig:RightToe_End
					{
						OFFSET -0.000001 -0.000679 9.278119
						CHANNELS 6 Xposition Yposition Zposition Xrotation Yrotation Zrotation
						End Site
						{
							OFFSET 0.000000 -0.067690 927.812134
						}
					}
				}
			}
		}
	}
	JOINT mixamorig:LeftUpLeg
	{
		OFFSET 8.207793 -6.751686 -1.599556
		CHANNELS 6 Xposition Yposition Zposition Xrotation Yrotation Zrotation
		JOINT mixamorig:LeftLeg
		{
			OFFSET -0.000004 -44.370014 0.346954
			CHANNELS 6 Xposition Yposition Zposition Xrotation Yrotation Zrotation
			JOINT mixamorig:LeftFoot
			{
				OFFSET -0.000001 -44.423672 -3.044401
				CHANNELS 6 Xposition Yposition Zposition Xrotation Yrotation Zrotation
				JOINT mixamorig:LeftToeBase
				{
					OFFSET -0.000002 -8.728669 10.710558
					CHANNELS 6 Xposition Yposition Zposition Xrotation Yrotation Zrotation
					JOINT mixamorig:LeftToe_End
					{
						OFFSET -0.000003 -0.000679 9.278133
						CHANNELS 6 Xposition Yposition Zposition Xrotation Yrotation Zrotation
						End Site
						{
							OFFSET 0.000000 -0.068021 927.813477
						}
					}
				}
			}
		}
	}
}
MOTION
Frames: 3
Frame Time: 0.033333
0.000006 104.270477 1.554256 0.000010 0.000003 -0.000113 -0.000005 10.181587 0.131522 0.000001 -0.000003 0.000084 -0.000000 9.893967 -1.470711 0.000001 0.000000 -0.000000 -0.000000 9.220802 -1.370642 0.000000 -0.000000 -0.000000 0.000001 16.740433 -2.049030 0.000000 -0.000000 -0.000000 0.000000 9.617859 1.685014 0.000000 0.000000 0.000000 0.000002 22.037384 7.501101 0.000000 -0.000000 0.000000 -4.569968 11.014880 -2.160881 0.000008 0.000001 -0.000038 -10.592775 -0.524851 -2.231746 78.852396 64.470559 -54.809775 -27.841511 -0.000009 0.000573 45.493346 101.673226 -54.473627 -28.328831 0.000006 0.000021 -0.000323 -0.000044 0.000008 -2.464887 -1.574118 2.682069 123.441749 -197.636482 165.933312 -3.215149 -1.873003 1.924509 280.860684 -6.349450 337.021095 -2.654763 -1.528271 1.512882 268.986646 -15.030752 -30.667877 -2.018831 -1.151995 1.108055 -0.000004 -0.000001 0.000004 -9.108321 -0.517902 2.260376 241.524341 22.329905 -323.280968 -3.700020 -0.000075 0.001681 68.597291 164.367847 -157.261554 -2.850044 -0.000085 -0.000043 -108.358752 10.266758 14.188769 -2.772172 -0.000016 -0.000022 -0.000000 0.000000 0.000000 -9.532487 -0.000028 0.000533 223.147908 13.168036 -327.280644 -3.700003 -0.000086 0.004208 -119.080387 1.006882 1.578978 -2.950012 -0.000150 -0.001619 -105.757508 3.732455 4.922721 -2.946620 -0.000004 -0.000153 0.000001 -0.000001 0.000001 -9.103577 -0.043030 -1.864549 220.553024 13.991106 36.693344 -3.379261 -0.000174 -0.000614 251.167639 -3.575353 -4.973106 -2.889682 -0.000196 0.000711 -92.151382 -6.904154 -7.120506 -2.638805 -0.000011 0.000939 0.000000 -0.000002 -0.000002 -8.076669 -0.486683 -3.805720 222.490366 12.358034 30.927124 -3.599971 -0.000246 -0.003341 -102.719167 -7.714052 -10.083349 -2.099936 -0.000271 -0.005523 -75.919014 -11.488248 -9.160871 -2.115759 -0.000024 -0.003682 0.000004 -0.000002 -0.000010 4.570446 11.014691 -2.160851 -0.000018 0.000010 -0.000021 10.592529 -0.524508 -2.232410 75.017662 -60.355438 48.106177 27.841776 -0.000050 -0.000144 23.560521 -94.452104 25.406623 28.328833 -0.000018 0.000025 0.000020 -0.000089 -0.000000 2.466177 -1.576163 2.681844 182.286998 223.424558 -158.031685 3.217839 -1.871920 1.916610 -30.110858 -23.129041 11.748463 2.656059 -1.528754 1.514635 -51.513256 0.247054 13.994492 2.020895 -1.154082 1.115162 0.000000 0.000002 0.000004 9.109306 -0.517990 2.260042 -45.079559 -20.175549 -8.443764 3.699972 0.000069 -0.000122 -66.798007 -13.356894 -8.836271 2.849982 0.000117 0.000578 -71.868111 -11.336247 -8.228470 2.774884 0.000000 -0.000021 0.000002 -0.000000 0.000001 9.533400 0.000098 0.000241 -53.885377 -14.892782 -7.598854 3.699990 0.000076 -0.000007 -65.810710 -8.061688 -5.220207 2.949986 0.000062 0.000163 -66.304703 -12.229148 -8.006636 2.952871 -0.000046 0.000067 0.000003 0.000002 0.000001 9.104505 -0.042911 -1.864843 -74.208591 -13.655597 -10.351085 3.149989 0.000142 0.000266 107.580937 187.363905 -185.395868 2.949965 0.000134 0.000265 289.375581 -9.300734 -6.596328 2.644325 0.000045 0.000057 0.000002 -0.000000 -0.000000 8.077744 -0.486749 -3.806023 -78.866029 -15.036317 -12.660584 3.599936 0.000150 0.014979 -76.063801 -8.474316 -6.909518 2.099978 0.000116 0.007939 -72.505511 -8.997076 -6.848556 2.125503 -0.000029 0.007528 0.000002 0.000001 0.000000 -8.207786 -6.751667 -1.599560 -0.077001 -0.000003 0.000080 -0.000002 -44.370110 0.345938 0.153719 -0.000000 -0.000000 0.000000 -44.423679 -3.043532 -0.076700 0.000000 -0.000002 -0.000006 -8.728667 10.710559 -0.000009 -0.000000 -0.000000 -0.000001 -0.000679 9.278123 0.000000 -0.000000 -0.000000 8.207792 -6.751710 -1.599556 -0.074518 -0.000003 0.000081 -0.000002 -44.370014 0.346960 0.148822 0.000002 0.000000 -0.000001 -44.423664 -3.044403 -0.074314 0.000000 -0.000002 -0.000004 -8.728671 10.710558 0.000007 -0.000000 -0.000000 0.000000 -0.000680 9.278137 -0.000000 0.000000 -0.000001 
0.000006 104.270477 1.554256 0.000010 0.000003 -0.000113 -0.000005 10.181587 0.131522 0.000001 -0.000003 0.000084 -0.000000 9.893967 -1.470711 0.000001 0.000000 -0.000000 -0.000000 9.220802 -1.370642 0.000000 -0.000000 -0.000000 0.000001 16.740433 -2.049030 0.000000 -0.000000 -0.000000 0.000000 9.617859 1.685014 0.000000 0.000000 0.000000 0.000002 22.037384 7.501101 0.000000 -0.000000 0.000000 -4.569968 11.014880 -2.160881 0.000008 0.000001 -0.000038 -10.592760 -0.524849 -2.231729 83.500067 67.959945 -62.059632 -27.841496 0.000015 0.000570 58.927846 104.549965 -72.280552 -28.328829 0.000051 0.000019 -0.000322 -0.000045 0.000007 -2.464831 -1.574152 2.682000 126.708861 -183.888022 165.783649 -3.215097 -1.873023 1.924430 292.285870 -14.919783 339.305193 -2.654724 -1.528271 1.512799 284.238076 -21.312255 -25.791006 -2.018827 -1.152000 1.108049 -0.000001 -0.000000 0.000002 -9.108325 -0.517991 2.260295 254.078092 15.408377 -339.639489 -3.700026 -0.000113 0.001689 68.035548 170.497272 -165.981766 -2.850032 -0.000089 -0.000050 -115.612877 4.121941 6.541726 -2.772163 -0.000015 -0.000019 -0.000001 -0.000000 -0.000000 -9.532522 -0.000121 0.000484 240.808100 12.025821 -339.505372 -3.700016 -0.000082 0.004212 -120.430497 4.812328 8.272831 -2.950004 -0.000114 -0.001573 -120.239033 2.457677 4.266168 -2.946634 0.000014 -0.000153 0.000002 0.000000 0.000000 -9.103632 -0.043136 -1.864621 243.272022 11.905567 19.170140 -3.379278 -0.000137 -0.000584 247.288829 3.946036 5.947153 -2.889701 -0.000159 0.000805 -106.374725 -1.648555 -2.146338 -2.638814 -0.000029 0.000941 -0.000000 0.000001 0.000002 -8.076684 -0.486740 -3.805773 233.960644 8.716376 16.839719 -3.599996 -0.000185 -0.003270 -118.555213 1.119275 1.365750 -2.099975 -0.000200 -0.005335 -107.341306 -2.575213 -3.787910 -2.115763 -0.000053 -0.003681 -0.000000 -0.000000 -0.000002 4.570446 11.014691 -2.160851 -0.000018 0.000010 -0.000021 10.592529 -0.524532 -2.232398 71.014966 -63.464806 47.616008 27.841791 -0.000016 -0.000161 3.976990 -95.050306 4.343712 28.328835 -0.000030 0.000022 0.000020 -0.000089 -0.000001 2.466159 -1.576135 2.681897 147.878199 212.388202 -169.100212 3.217834 -1.871894 1.916640 -51.396354 -23.926144 13.644169 2.656052 -1.528696 1.514675 -66.466558 -7.248456 14.631228 2.020886 -1.154070 1.115151 0.000004 -0.000002 0.000004 9.109230 -0.517916 2.260086 -77.649887 -45.246243 -34.106959 3.699924 0.000124 -0.000084 -78.901614 -30.790356 -22.971004 2.849962 0.000171 0.000603 -85.586922 -23.360309 -20.246168 2.774886 -0.000031 -0.000032 -0.000001 -0.000000 0.000001 9.533303 0.000177 0.000291 -89.404915 -46.568916 -37.237908 3.699933 0.000154 0.000015 -90.338384 -0.119681 -16.103477 2.949963 0.000169 0.000183 -88.120826 -25.839451 -18.125502 2.952873 -0.000030 0.000066 -0.000000 0.000001 0.000000 9.104427 -0.042810 -1.864839 -103.394898 0.017071 -29.697058 3.149948 0.000195 0.000281 86.301653 180.703569 -195.631357 2.949964 0.000172 0.000294 273.569020 -0.155017 -7.032678 2.644319 0.000015 0.000061 -0.000004 0.000000 -0.000000 8.077682 -0.486664 -3.806015 -101.100986 2.230782 -24.167911 3.599937 0.000183 0.014968 -88.542877 -0.504345 -3.367374 2.100021 0.000162 0.007937 -87.032128 -4.455577 5.721916 2.125498 -0.000028 0.007531 -0.000000 -0.000002 -0.000001 -8.207786 -6.751667 -1.599560 -0.077001 -0.000003 0.000080 -0.000002 -44.370110 0.345938 0.153719 -0.000000 -0.000000 0.000000 -44.423679 -3.043532 -0.076700 0.000000 -0.000002 -0.000006 -8.728667 10.710559 -0.000009 -0.000000 -0.000000 -0.000001 -0.000679 9.278123 0.000000 -0.000000 -0.000000 8.207792 -6.751710 -1.599556 -0.074518 -0.000003 0.000081 -0.000002 -44.370014 0.346960 0.148822 0.000002 0.000000 -0.000001 -44.423664 -3.044403 -0.074314 0.000000 -0.000002 -0.000004 -8.728671 10.710558 0.000007 -0.000000 -0.000000 0.000000 -0.000680 9.278137 -0.000000 0.000000 -0.000001 
0.000006 104.270477 1.554256 0.000010 0.000003 -0.000113 -0.000005 10.181587 0.131522 0.000001 -0.000003 0.000084 -0.000000 9.893967 -1.470711 0.000001 0.000000 -0.000000 -0.000000 9.220802 -1.370642 0.000000 -0.000000 -0.000000 0.000001 16.740433 -2.049030 0.000000 -0.000000 -0.000000 0.000000 9.617859 1.685014 0.000000 0.000000 0.000000 0.000002 22.037384 7.501101 0.000000 -0.000000 0.000000 -4.569968 11.014880 -2.160881 0.000008 0.000001 -0.000038 -10.592767 -0.524854 -2.231742 84.505395 65.669714 -60.759444 -27.841509 0.000005 0.000567 53.683924 103.242824 -65.155046 -28.328829 0.000021 0.000013 -0.000322 -0.000043 0.000007 -2.464875 -1.574102 2.682037 123.505475 -193.752126 165.685827 -3.215156 -1.873000 1.924441 293.912630 -5.511476 341.382444 -2.654804 -1.528233 1.512801 291.598152 -7.238979 -19.877182 -2.018830 -1.151983 1.108063 0.000001 0.000002 0.000003 -9.108303 -0.517892 2.260371 237.358472 21.067051 -322.419162 -3.700030 -0.000092 0.001698 66.357603 168.822974 -162.999610 -2.850035 -0.000123 -0.000072 -106.064136 5.751467 7.635526 -2.772166 -0.000018 -0.000023 0.000001 0.000001 0.000001 -9.532516 -0.000060 0.000528 231.301324 14.927802 -329.335712 -3.700009 -0.000128 0.004166 -113.039624 -0.315392 -0.598317 -2.949974 -0.000172 -0.001624 -101.126627 -0.535041 -0.657893 -2.946614 0.000001 -0.000159 0.000001 0.000001 0.000002 -9.103624 -0.043057 -1.864589 228.430527 14.322383 31.169244 -3.379272 -0.000197 -0.000633 252.697520 -3.631213 -4.911368 -2.889679 -0.000213 0.000737 -92.415745 -8.117950 -8.418202 -2.638801 -0.000017 0.000939 -0.000000 0.000000 -0.000000 -8.076686 -0.486707 -3.805750 227.390166 12.244072 27.284616 -3.599968 -0.000232 -0.003328 -104.208947 -2.757819 -3.965842 -2.099960 -0.000249 -0.005439 -85.833532 -6.077156 -5.857238 -2.115769 -0.000056 -0.003680 -0.000000 0.000001 -0.000006 4.570446 11.014691 -2.160851 -0.000018 0.000010 -0.000021 10.592533 -0.524528 -2.232395 72.092298 -64.408786 49.251825 27.841772 -0.000053 -0.000143 36.332314 -97.166831 40.807638 28.328835 -0.000013 0.000023 0.000021 -0.000088 -0.000001 2.466184 -1.576109 2.681899 125.496052 192.812128 -165.941522 3.217844 -1.871874 1.916604 -69.733288 -10.304832 16.698026 2.656066 -1.528673 1.514683 -78.784518 -8.621285 18.826464 2.020883 -1.154056 1.115153 0.000002 0.000002 0.000003 9.109222 -0.517864 2.260109 -98.474751 -32.987355 -37.909934 3.699896 0.000125 -0.000091 -90.239401 -33.393659 -33.529699 2.849926 0.000179 0.000589 -93.078792 -23.917320 -25.196628 2.774886 -0.000017 -0.000021 0.000004 -0.000001 0.000000 9.533249 0.000278 0.000271 -128.260940 -31.005599 -59.537557 3.699901 0.000206 0.000041 -104.680190 -21.869962 -28.107354 2.949947 0.000170 0.000190 -97.524877 -20.427267 -23.231162 2.952872 -0.000015 0.000066 0.000000 -0.000002 0.000001 9.104375 -0.042785 -1.864858 -129.261166 -29.346000 -57.815448 3.149933 0.000297 0.000304 66.633584 192.966149 -199.618863 2.949971 0.000212 0.000278 256.666351 -5.130408 -6.487586 2.644316 0.000034 0.000059 -0.000000 0.000001 0.000000 8.077641 -0.486594 -3.806029 -126.034516 -21.753582 -41.744655 3.599969 0.000240 0.014961 -102.573978 4.074185 4.521067 2.100030 0.000172 0.007907 -94.157662 7.766085 7.860411 2.125501 -0.000031 0.007517 0.000000 0.000002 0.000001 -8.207786 -6.751667 -1.599560 -0.077001 -0.000003 0.000080 -0.000002 -44.370110 0.345938 0.153719 -0.000000 -0.000000 0.000000 -44.423679 -3.043532 -0.076700 0.000000 -0.000002 -0.000006 -8.728667 10.710559 -0.000009 -0.000000 -0.000000 -0.000001 -0.000679 9.278123 0.000000 -0.000000 -0.000000 8.207792 -6.751710 -1.599556 -0.074518 -0.000003 0.000081 -0.000002 -44.370014 0.346960 0.148822 0.000002 0.000000 -0.000001 -44.423664 -3.044403 -0.074314 0.000000 -0.000002 -0.000004 -8.728671 10.710558 0.000007 -0.000000 -0.000000 0.000000 -0.000680 9.278137 -0.000000 0.000000 -0.000001 
